# This file uses centimeters as units for non-parametric coordinates.

mtllib P.mtl
g default
v -8.267930 294.915140 8.515400
v 10.308252 294.915140 8.515400
v -8.267930 294.915140 -8.515400
v 10.308252 294.915140 -8.515400
v -8.267930 0.000020 8.515400
v -8.267930 0.000020 -8.515400
v 10.308252 0.000020 -8.515400
v 10.308252 0.000020 8.515400
v -8.267930 286.119711 -8.515400
v -8.267930 286.119711 8.515400
v 10.308252 286.119711 8.515400
v 10.308252 286.119711 -8.515400
v -24.160878 286.119711 -8.515400
v -24.160878 286.119711 8.515400
v -24.160878 294.915140 8.515400
v -24.160878 294.915140 -8.515400
v 26.200880 286.119711 8.515400
v 26.200880 286.119711 -8.515400
v 26.200880 294.915140 -8.515400
v 26.200880 294.915140 8.515400
v -91.610333 359.767758 8.515400
v 93.650334 359.767758 8.515400
v 93.650334 359.767758 -8.515400
v -91.610333 359.767758 -8.515400
v -10.826777 309.743778 8.515400
v -10.826777 309.743778 -8.515400
v 12.866938 309.743778 -8.515400
v 12.866938 309.743778 8.515400
v -16.690557 319.748582 8.515400
v -16.690557 319.748582 -8.515400
v 18.730878 319.748582 -8.515400
v 18.730878 319.748582 8.515400
v -25.591980 329.753346 8.515400
v -25.591980 329.753346 -8.515400
v 27.632141 329.753346 -8.515400
v 27.632141 329.753346 8.515400
v -38.610142 339.758230 8.515400
v -38.610142 339.758230 -8.515400
v 40.650224 339.758230 -8.515400
v 40.650224 339.758230 8.515400
v -57.597558 349.762954 8.515400
v -57.597558 349.762954 -8.515400
v 59.637719 349.762954 -8.515400
v 59.637719 349.762954 8.515400
v -91.610333 371.349530 8.515400
v 93.650334 371.349530 8.515400
v 93.650334 371.349530 -8.515400
v -91.610333 371.349530 -8.515400
v 97.365779 359.171626 8.515400
v 97.365779 359.171626 -8.515400
v 97.365779 371.349530 -8.515400
v 97.365779 371.349530 8.515400
v -95.325457 359.767758 8.515400
v -95.325457 359.767758 -8.515400
v -95.325457 371.349530 8.515400
v -95.325457 371.349530 -8.515400
v -31.595695 286.119711 -8.515400
v -31.595695 286.119711 8.515400
v -31.595695 294.915140 8.515400
v -31.595695 294.915140 -8.515400
v 33.635696 286.119711 8.515400
v 33.635696 286.119711 -8.515400
v 33.635696 294.915140 -8.515400
v 33.635696 294.915140 8.515400
v 126.097441 326.398682 8.515400
v 126.097441 326.398682 -8.515400
v 126.097441 371.349530 -8.515400
v 126.097441 371.349530 8.515400
v 100.558186 358.278270 8.515400
v 100.558186 371.349570 8.515400
v 100.558186 371.349570 -8.515400
v 100.558186 358.278270 -8.515400
v 103.750512 357.115180 8.515400
v 103.750512 371.349570 8.515400
v 103.750512 371.349570 -8.515400
v 103.750512 357.115180 -8.515400
v 106.942919 356.031595 8.515400
v 106.942919 371.349530 8.515400
v 106.942919 371.349530 -8.515400
v 106.942919 356.031595 -8.515400
v 110.135406 354.709413 8.515400
v 110.135406 371.349530 8.515400
v 110.135406 371.349530 -8.515400
v 110.135406 354.709413 -8.515400
v 113.327813 352.989704 8.515400
v 113.327813 371.349530 8.515400
v 113.327813 371.349530 -8.515400
v 113.327813 352.989704 -8.515400
v 116.519980 350.474778 8.515400
v 116.519980 371.349530 8.515400
v 116.519980 371.349530 -8.515400
v 116.519980 350.474778 -8.515400
v 119.712547 346.846532 8.515400
v 119.712547 371.349530 8.515400
v 119.712547 371.349530 -8.515400
v 119.712547 346.846532 -8.515400
v 122.904874 339.401577 8.515400
v 122.904874 371.349530 8.515400
v 122.904874 371.349530 -8.515400
v 122.904874 339.401577 -8.515400
vt 0.711460 0.750473
vt 0.630329 0.945637
vt 0.751473 0.275619
vt 0.754289 0.750219
vt 0.277400 0.087942
vt 0.309373 0.730079
vt 0.234567 0.065686
vt 0.277398 0.065683
vt 0.190384 0.065682
vt 0.233215 0.065686
vt 0.233212 0.087945
vt 0.476495 0.752264
vt 0.369135 0.730052
vt 0.190390 0.005921
vt 0.752029 0.369341
vt 0.369144 0.752312
vt 0.639761 0.789580
vt 0.596931 0.789360
vt 0.277404 0.147704
vt 0.416404 0.005921
vt 0.189020 0.005921
vt 0.189159 0.730031
vt 0.328419 0.730070
vt 0.277401 0.106989
vt 0.234566 0.046639
vt 0.791378 0.081506
vt 0.277396 0.046636
vt 0.233217 0.046639
vt 0.190386 0.046635
vt 0.233206 0.147707
vt 0.457448 0.752273
vt 0.233211 0.106992
vt 0.423305 0.789816
vt 0.362606 0.789843
vt 0.795098 0.407168
vt 0.791840 0.119600
vt 0.347595 0.815170
vt 0.792196 0.149038
vt 0.795283 0.436608
vt 0.438339 0.815130
vt 0.324802 0.840500
vt 0.792609 0.183111
vt 0.795497 0.470683
vt 0.461154 0.840440
vt 0.291463 0.865835
vt 0.793116 0.224981
vt 0.795759 0.512555
vt 0.494515 0.865745
vt 0.242831 0.891176
vt 0.793780 0.279816
vt 0.796103 0.567392
vt 0.543169 0.891044
vt 0.155707 0.916535
vt 0.794878 0.370549
vt 0.796673 0.658130
vt 0.753843 0.658399
vt 0.713403 0.831838
vt 0.797493 0.788777
vt 0.750980 0.192496
vt 0.708151 0.192750
vt 0.754520 0.789047
vt 0.146189 0.916539
vt 0.711516 0.759990
vt 0.754346 0.759736
vt 0.796733 0.667767
vt 0.753904 0.668036
vt 0.639847 0.945632
vt 0.751417 0.266100
vt 0.796786 0.676252
vt 0.753957 0.676521
vt 0.708539 0.258176
vt 0.751368 0.257922
vt 0.754011 0.685212
vt 0.708490 0.249998
vt 0.751320 0.249744
vt 0.796841 0.684944
vt 0.754066 0.693838
vt 0.708442 0.241820
vt 0.751271 0.241566
vt 0.796895 0.693569
vt 0.754121 0.702675
vt 0.708393 0.233641
vt 0.751223 0.233387
vt 0.796951 0.702406
vt 0.754179 0.711939
vt 0.708345 0.225463
vt 0.751174 0.225209
vt 0.797009 0.711670
vt 0.754244 0.722301
vt 0.708296 0.217285
vt 0.751126 0.217031
vt 0.797074 0.722033
vt 0.754321 0.734598
vt 0.708248 0.209107
vt 0.751077 0.208852
vt 0.797151 0.734329
vt 0.754450 0.755137
vt 0.708199 0.200928
vt 0.751029 0.200674
vt 0.797280 0.754869
vt 0.705274 0.945603
vt 0.713453 0.945600
vt 0.705238 0.864750
vt 0.707476 0.078990
vt 0.754663 0.789046
vt 0.697096 0.945607
vt 0.697068 0.883595
vt 0.688917 0.945611
vt 0.688894 0.892781
vt 0.680739 0.945614
vt 0.680719 0.899149
vt 0.672561 0.945618
vt 0.672542 0.903505
vt 0.664382 0.945621
vt 0.664365 0.906855
vt 0.656204 0.945625
vt 0.656188 0.909601
vt 0.648025 0.945629
vt 0.648011 0.912548
vt 0.708587 0.266354
vt 0.750305 0.078736
vt 0.639833 0.914813
vt 0.476485 0.730005
vt 0.190382 0.087941
vt 0.190380 0.106988
vt 0.457438 0.730013
vt 0.234569 0.087945
vt 0.309382 0.752338
vt 0.328429 0.752330
vt 0.234571 0.106992
vt 0.837820 0.379547
vt 0.711690 0.789301
vt 0.146202 0.945850
vt 0.155720 0.945846
vt 0.794993 0.380066
vt 0.837705 0.370030
vt 0.708644 0.275872
vt 0.630316 0.916325
vt 0.753274 0.567661
vt 0.836607 0.279297
vt 0.752930 0.512824
vt 0.835943 0.224463
vt 0.752667 0.470952
vt 0.835436 0.182593
vt 0.752453 0.436877
vt 0.835023 0.148520
vt 0.752269 0.407436
vt 0.834667 0.119081
vt 0.190376 0.147702
vt 0.416734 0.752291
vt 0.234563 0.005924
vt 0.834206 0.080987
vt 0.146329 0.730040
vt 0.416724 0.730031
vt 0.600666 0.065258
vt 0.234574 0.147707
vt 0.233221 0.005925
vt 0.643496 0.065479
vt 0.146189 0.005929
vt 0.368815 0.005942
vt 0.794859 0.369072
vt 0.277393 0.005921
vn 0.000000 1.000000 0.000000
vn 0.000000 1.000000 0.000000
vn 0.000000 1.000000 0.000000
vn 0.000000 1.000000 0.000000
vn -1.000000 0.000000 0.000000
vn -1.000000 0.000000 0.000000
vn -1.000000 0.000000 0.000000
vn -1.000000 0.000000 0.000000
vn 1.000000 0.000000 0.000000
vn 1.000000 0.000000 0.000000
vn 1.000000 0.000000 0.000000
vn 1.000000 0.000000 0.000000
vn 0.000000 0.000000 1.000000
vn 0.000000 0.000000 1.000000
vn 0.000000 0.000000 1.000000
vn 0.000000 0.000000 1.000000
vn -1.000000 0.000000 0.000000
vn -1.000000 0.000000 0.000000
vn -1.000000 0.000000 0.000000
vn -1.000000 0.000000 0.000000
vn 0.000000 0.000000 1.000000
vn 0.000000 0.000000 1.000000
vn 1.000000 0.000000 0.000000
vn 1.000000 0.000000 0.000000
vn 1.000000 0.000000 0.000000
vn 1.000000 0.000000 0.000000
vn 0.000000 -1.000000 0.000000
vn 0.000000 -1.000000 0.000000
vn 0.000000 -1.000000 0.000000
vn 0.000000 -1.000000 0.000000
vn 0.000000 0.000000 1.000000
vn 0.000000 0.000000 1.000000
vn 0.000000 1.000000 0.000000
vn 0.000000 1.000000 0.000000
vn 0.000000 1.000000 0.000000
vn 0.000000 1.000000 0.000000
vn 0.000000 -1.000000 0.000000
vn 0.000000 -1.000000 0.000000
vn 0.000000 -1.000000 0.000000
vn 0.000000 -1.000000 0.000000
vn 0.000000 1.000000 0.000000
vn 0.000000 1.000000 0.000000
vn 0.000000 1.000000 0.000000
vn 0.000000 1.000000 0.000000
vn 0.000000 0.000000 1.000000
vn 0.000000 0.000000 1.000000
vn 0.000000 0.000000 1.000000
vn 0.000000 0.000000 1.000000
vn 0.985438 -0.170038 0.000000
vn 0.985438 -0.170038 0.000000
vn 0.947013 -0.321194 0.000000
vn 0.947013 -0.321194 0.000000
vn -0.985436 -0.170048 0.000000
vn -0.985436 -0.170048 0.000000
vn -0.947014 -0.321194 0.000000
vn -0.947014 -0.321194 0.000000
vn -0.804646 -0.593754 0.000000
vn -0.804646 -0.593754 0.000000
vn 0.804646 -0.593754 0.000000
vn 0.804646 -0.593754 0.000000
vn 0.000000 0.000000 1.000000
vn 0.000000 0.000000 1.000000
vn -0.674198 -0.738551 0.000000
vn -0.674198 -0.738551 0.000000
vn 0.674202 -0.738547 0.000000
vn 0.674202 -0.738547 0.000000
vn 0.000000 0.000000 1.000000
vn 0.000000 0.000000 1.000000
vn -0.530116 -0.847925 0.000000
vn -0.530116 -0.847925 0.000000
vn 0.530116 -0.847925 0.000000
vn 0.530116 -0.847925 0.000000
vn 0.000000 0.000000 1.000000
vn 0.000000 0.000000 1.000000
vn -0.353203 -0.935547 0.000000
vn -0.353203 -0.935547 0.000000
vn 0.353204 -0.935546 0.000000
vn 0.353204 -0.935546 0.000000
vn 0.000000 0.000000 1.000000
vn 0.000000 0.000000 1.000000
vn -0.256324 -0.966591 0.000000
vn -0.256324 -0.966591 0.000000
vn 0.241971 -0.970284 0.000000
vn 0.241971 -0.970284 0.000000
vn -0.000000 0.000000 1.000000
vn 0.000000 0.000000 1.000000
vn -0.000000 0.000000 1.000000
vn 0.000000 0.000000 1.000000
vn 1.000000 0.000000 0.000000
vn 1.000000 0.000000 0.000000
vn 1.000000 0.000000 0.000000
vn 1.000000 0.000000 0.000000
vn -1.000000 0.000000 0.000000
vn -1.000000 0.000000 0.000000
vn -1.000000 0.000000 0.000000
vn -1.000000 0.000000 0.000000
vn -0.210778 -0.977534 0.000000
vn -0.210778 -0.977534 0.000000
vn -0.000006 1.000000 0.000000
vn -0.000006 1.000000 0.000000
vn 0.000000 0.000000 1.000000
vn 0.000000 0.000000 1.000000
vn 0.000000 -1.000000 0.000000
vn 0.000000 -1.000000 0.000000
vn 0.000000 0.000000 1.000000
vn 0.000000 0.000000 1.000000
vn 0.000000 1.000000 0.000000
vn 0.000000 1.000000 0.000000
vn 0.000000 -1.000000 0.000000
vn 0.000000 -1.000000 0.000000
vn 0.000000 0.000000 1.000000
vn 0.000000 0.000000 1.000000
vn 0.000000 1.000000 0.000000
vn 0.000000 1.000000 0.000000
vn 0.000000 -1.000000 0.000000
vn 0.000000 -1.000000 0.000000
vn 0.000000 1.000000 0.000000
vn 0.000000 1.000000 0.000000
vn 0.000000 0.000000 1.000000
vn 0.000000 0.000000 1.000000
vn -0.306578 -0.951846 0.000000
vn -0.306578 -0.951846 0.000000
vn -0.000006 1.000000 0.000000
vn -0.000006 1.000000 0.000000
vn 0.000000 0.000000 1.000000
vn 0.000000 0.000000 1.000000
vn 0.000000 0.000000 1.000000
vn 0.000000 0.000000 1.000000
vn 0.000006 1.000000 0.000000
vn 0.000006 1.000000 0.000000
vn -0.331932 -0.943303 0.000000
vn -0.331932 -0.943303 0.000000
vn 0.000000 0.000000 1.000000
vn 0.000000 0.000000 1.000000
vn 0.000006 1.000000 0.000000
vn 0.000006 1.000000 0.000000
vn -0.352592 -0.935777 0.000000
vn -0.352592 -0.935777 0.000000
vn 0.000000 0.000000 1.000000
vn 0.000000 0.000000 1.000000
vn 0.000000 1.000000 0.000000
vn 0.000000 1.000000 0.000000
vn -0.430103 -0.902780 0.000000
vn -0.430103 -0.902780 0.000000
vn -0.000000 0.000000 1.000000
vn 0.000000 0.000000 1.000000
vn 0.000000 1.000000 0.000000
vn 0.000000 1.000000 0.000000
vn -0.552733 -0.833358 0.000000
vn -0.552733 -0.833358 0.000000
vn -0.000000 0.000000 1.000000
vn -0.000000 0.000000 1.000000
vn 0.000000 1.000000 0.000000
vn 0.000000 1.000000 0.000000
vn -0.693343 -0.720608 0.000000
vn -0.693343 -0.720608 0.000000
vn 0.000000 0.000000 1.000000
vn 0.000000 0.000000 1.000000
vn 0.000000 1.000000 0.000000
vn 0.000000 1.000000 0.000000
vn -0.866304 -0.499517 0.000000
vn -0.866304 -0.499517 0.000000
vn 0.000000 0.000000 1.000000
vn 0.000000 0.000000 1.000000
vn 0.000000 1.000000 0.000000
vn 0.000000 1.000000 0.000000
vn -0.954547 -0.298060 0.000000
vn -0.954547 -0.298060 0.000000
vn 0.000000 0.000000 1.000000
vn 0.000000 0.000000 1.000000
vn 0.000000 1.000000 0.000000
vn 0.000000 1.000000 0.000000
vn -0.971156 -0.238445 0.000000
vn -0.971156 -0.238445 0.000000
s 1
g pasted__polySurface24 pasted__polySurface6 group
usemtl pasted__standardSurface1SG
f 45/1/1 46/137/2 47/3/3 48/4/4
s off
f 57/5/5 58/127/6 59/7/7 60/8/8
f 61/9/9 62/10/10 63/11/11 64/124/12
s 2
f 10/13/13 11/154/14 2/150/15 1/16/16
s off
f 6/17/17 5/18/18 10/155/19 9/158/20
s 2
f 5/160/21 8/20/22 11/154/14 10/13/13
s off
f 8/159/23 7/21/24 12/22/25 11/153/26
s 3
f 9/19/27 10/156/28 14/130/29 13/24/30
s 2
f 10/13/13 1/16/16 15/129/31 14/23/32
s 4
f 1/151/33 3/162/34 16/27/35 15/25/36
s 5
f 11/14/37 12/157/38 18/28/39 17/29/40
s 6
f 4/30/41 2/149/42 20/125/43 19/32/44
s 2
f 2/150/15 11/154/14 17/126/45 20/31/46
f 1/16/16 2/150/15 28/33/47 25/34/48
s 7
f 2/15/49 4/161/50 27/35/51 28/147/52
s 8
f 3/26/53 1/152/54 25/148/55 26/36/56
f 26/36/56 25/148/55 29/146/57 30/38/58
s 7
f 28/147/52 27/35/51 31/39/59 32/145/60
s 2
f 25/34/48 28/33/47 32/40/61 29/37/62
s 8
f 30/38/58 29/146/57 33/144/63 34/42/64
s 7
f 32/145/60 31/39/59 35/43/65 36/143/66
s 2
f 29/37/62 32/40/61 36/44/67 33/41/68
s 8
f 34/42/64 33/144/63 37/142/69 38/46/70
s 7
f 36/143/66 35/43/65 39/47/71 40/141/72
s 2
f 33/41/68 36/44/67 40/48/73 37/45/74
s 8
f 38/46/70 37/142/69 41/140/75 42/50/76
s 7
f 40/141/72 39/47/71 43/51/77 44/139/78
s 2
f 37/45/74 40/48/73 44/52/79 41/49/80
s 8
f 42/50/76 41/140/75 21/136/81 24/54/82
s 7
f 44/139/78 43/51/77 23/55/83 22/56/84
s 2
f 41/49/80 44/52/79 22/138/85 21/53/86
f 21/53/86 22/138/85 46/2/87 45/134/88
s off
f 65/104/89 66/121/90 67/59/91 68/60/92
f 54/61/93 53/132/94 55/63/95 56/64/96
s 7
f 22/56/84 23/55/83 50/65/97 49/66/98
s 1
f 47/3/3 46/137/2 52/120/99 51/68/100
s 2
f 46/2/87 22/138/85 49/122/101 52/67/102
s 8
f 24/54/82 21/136/81 53/131/103 54/135/104
s 2
f 21/53/86 45/134/88 55/133/105 53/62/106
s 1
f 45/1/1 48/4/4 56/64/107 55/63/108
s 3
f 13/24/30 14/130/29 58/127/109 57/5/110
s 2
f 14/23/32 15/129/31 59/128/111 58/6/112
s 4
f 15/25/36 16/27/35 60/8/113 59/7/114
s 5
f 17/29/40 18/28/39 62/10/115 61/9/116
s 6
f 19/32/44 20/125/43 64/124/117 63/11/118
s 2
f 20/31/46 17/126/45 61/123/119 64/12/120
s 7
f 49/66/98 50/65/97 72/69/121 69/70/122
s 1
f 51/68/100 52/120/99 70/71/123 71/72/124
s 2
f 52/67/102 49/122/101 69/119/125 70/118/126
f 70/118/126 69/119/125 73/117/127 74/116/128
s 1
f 71/72/124 70/71/123 74/74/129 75/75/130
s 7
f 69/70/122 72/69/121 76/76/131 73/73/132
s 2
f 74/116/128 73/117/127 77/115/133 78/114/134
s 1
f 75/75/130 74/74/129 78/78/135 79/79/136
s 7
f 73/73/132 76/76/131 80/80/137 77/77/138
s 2
f 78/114/134 77/115/133 81/113/139 82/112/140
s 1
f 79/79/136 78/78/135 82/82/141 83/83/142
s 7
f 77/77/138 80/80/137 84/84/143 81/81/144
s 2
f 82/112/140 81/113/139 85/111/145 86/110/146
s 1
f 83/83/142 82/82/141 86/86/147 87/87/148
s 7
f 81/81/144 84/84/143 88/88/149 85/85/150
s 2
f 86/110/146 85/111/145 89/109/151 90/108/152
s 1
f 87/87/148 86/86/147 90/90/153 91/91/154
s 7
f 85/85/150 88/88/149 92/92/155 89/89/156
s 2
f 90/108/152 89/109/151 93/107/157 94/106/158
s 1
f 91/91/154 90/90/153 94/94/159 95/95/160
s 7
f 89/89/156 92/92/155 96/96/161 93/93/162
s 2
f 94/106/158 93/107/157 97/103/163 98/101/164
s 1
f 95/95/160 94/94/159 98/98/165 99/99/166
s 7
f 93/93/162 96/96/161 100/100/167 97/97/168
s 2
f 98/101/164 97/103/163 65/57/169 68/102/170
s 1
f 99/99/166 98/98/165 68/60/171 67/59/172
s 7
f 97/97/168 100/100/167 66/58/173 65/105/174
g default
v 9.262318 295.046858 -6.461711
v -9.262051 295.046858 -6.461711
v 9.262318 295.046858 6.461711
v -9.262051 295.046858 6.461711
v 9.262318 1.000000 -6.461711
v 9.262318 1.000000 6.461711
v -9.262051 1.000000 6.461711
v -9.262051 1.000000 -6.461711
v 9.262318 286.277324 6.461711
v 9.262318 286.277324 -6.461711
v -9.262051 286.277324 -6.461711
v -9.262051 286.277324 6.461711
v 25.110954 286.277324 6.461711
v 25.110954 286.277324 -6.461711
v 25.110954 295.046858 -6.461711
v 25.110954 295.046858 6.461711
v -25.110364 286.277324 -6.461711
v -25.110364 286.277324 6.461711
v -25.110364 295.046858 6.461711
v -25.110364 295.046858 -6.461711
v 92.372212 359.708522 -6.461711
v -92.371633 359.708522 -6.461711
v -92.371633 359.708522 6.461711
v 92.372212 359.708522 6.461711
v 11.814031 309.831840 -6.461711
v 11.814031 309.831840 6.461711
v -11.813603 309.831840 6.461711
v -11.813603 309.831840 -6.461711
v 17.661425 319.807188 -6.461711
v 17.661425 319.807188 6.461711
v -17.661158 319.807188 6.461711
v -17.661158 319.807188 -6.461711
v 26.538001 329.782497 -6.461711
v 26.538001 329.782497 6.461711
v -26.537572 329.782497 6.461711
v -26.537572 329.782497 -6.461711
v 39.519835 339.757905 -6.461711
v 39.519835 339.757905 6.461711
v -39.519405 339.757905 6.461711
v -39.519405 339.757905 -6.461711
v 58.454306 349.733174 -6.461711
v 58.454306 349.733174 6.461711
v -58.453876 349.733174 6.461711
v -58.453876 349.733174 -6.461711
v 92.372212 371.256196 -6.461711
v -92.371633 371.256196 -6.461711
v -92.371633 371.256196 6.461711
v 92.372212 371.256196 6.461711
v -96.076698 359.114146 -6.461711
v -96.076698 359.114146 6.461711
v -96.076698 371.256196 6.461711
v -96.076698 371.256196 -6.461711
v 96.076958 359.708522 -6.461711
v 96.076958 359.708522 6.461711
v 96.076958 371.256196 -6.461711
v 96.076958 371.256196 6.461711
v 32.525000 286.277324 6.461711
v 32.525000 286.277324 -6.461711
v 32.525000 295.046858 -6.461711
v 32.525000 295.046858 6.461711
v -32.524411 286.277324 -6.461711
v -32.524411 286.277324 6.461711
v -32.524411 295.046858 6.461711
v -32.524411 295.046858 -6.461711
v -124.728166 326.437709 -6.461711
v -124.728166 326.437709 6.461711
v -124.728166 371.256196 6.461711
v -124.728166 371.256196 -6.461711
v -99.260186 358.223459 -6.461711
v -99.260186 371.256276 -6.461711
v -99.260186 371.256276 6.461711
v -99.260186 358.223459 6.461711
v -102.443593 357.063794 -6.461711
v -102.443593 371.256276 -6.461711
v -102.443593 371.256276 6.461711
v -102.443593 357.063794 6.461711
v -105.627081 355.983399 -6.461711
v -105.627081 371.256196 -6.461711
v -105.627081 371.256196 6.461711
v -105.627081 355.983399 6.461711
v -108.810728 354.665110 -6.461711
v -108.810728 371.256196 -6.461711
v -108.810728 371.256196 6.461711
v -108.810728 354.665110 6.461711
v -111.994376 352.950464 -6.461711
v -111.994376 371.256196 -6.461711
v -111.994376 371.256196 6.461711
v -111.994376 352.950464 6.461711
v -115.177464 350.442942 -6.461711
v -115.177464 371.256196 -6.461711
v -115.177464 371.256196 6.461711
v -115.177464 350.442942 6.461711
v -118.361111 346.825379 -6.461711
v -118.361111 371.256196 -6.461711
v -118.361111 371.256196 6.461711
v -118.361111 346.825379 6.461711
v -121.544759 339.402302 -6.461711
v -121.544759 371.256196 -6.461711
v -121.544759 371.256196 6.461711
v -121.544759 339.402302 6.461711
vt 0.870391 0.321738
vt 0.869612 0.771243
vt 0.829047 0.771173
vt 0.674464 0.901747
vt 0.529068 0.068647
vt 0.569632 0.068924
vt 0.569488 0.090006
vt 0.528841 0.718544
vt 0.229887 0.011652
vt 0.427167 0.718547
vt 0.427166 0.697465
vt 0.529454 0.012047
vt 0.514470 0.089337
vt 0.370566 0.697467
vt 0.473907 0.068251
vt 0.514472 0.068255
vt 0.472214 0.011651
vt 0.830039 0.069651
vt 0.829074 0.755463
vt 0.146225 0.011652
vt 0.186790 0.011651
vt 0.514465 0.145938
vt 0.569755 0.050886
vt 0.529191 0.050608
vt 0.569101 0.146606
vt 0.510801 0.718544
vt 0.569364 0.108045
vt 0.388605 0.697466
vt 0.514469 0.107377
vt 0.473909 0.050212
vt 0.228629 0.409165
vt 0.514474 0.050216
vt 0.188064 0.373085
vt 0.228629 0.373084
vt 0.478449 0.754089
vt 0.270452 0.047733
vt 0.270452 0.075617
vt 0.492678 0.778069
vt 0.188063 0.345201
vt 0.228628 0.345200
vt 0.270453 0.107890
vt 0.514277 0.802049
vt 0.188062 0.312928
vt 0.228627 0.312927
vt 0.270453 0.147548
vt 0.545864 0.826029
vt 0.188062 0.273269
vt 0.228627 0.273268
vt 0.270453 0.199486
vt 0.591935 0.850008
vt 0.188060 0.221332
vt 0.228625 0.221331
vt 0.270454 0.285426
vt 0.229889 0.285427
vt 0.224956 0.874003
vt 0.228624 0.135391
vt 0.869289 0.957715
vt 0.188056 0.011652
vt 0.146229 0.901766
vt 0.869476 0.849971
vt 0.829889 0.284892
vt 0.270454 0.294441
vt 0.870406 0.312724
vt 0.683478 0.901747
vt 0.215941 0.872574
vt 0.228624 0.126263
vt 0.829032 0.780188
vt 0.869596 0.780258
vt 0.188058 0.118228
vt 0.228623 0.118227
vt 0.208196 0.901764
vt 0.869583 0.788004
vt 0.869569 0.795749
vt 0.200451 0.901764
vt 0.188058 0.109996
vt 0.228623 0.109995
vt 0.869556 0.803495
vt 0.192705 0.901764
vt 0.188058 0.101826
vt 0.228623 0.101825
vt 0.869543 0.811241
vt 0.184959 0.901765
vt 0.188058 0.093456
vt 0.228623 0.093456
vt 0.869529 0.818988
vt 0.177212 0.901765
vt 0.188058 0.084682
vt 0.228623 0.084681
vt 0.869516 0.826732
vt 0.169468 0.901765
vt 0.188057 0.074867
vt 0.228623 0.074867
vt 0.869502 0.834479
vt 0.161721 0.901766
vt 0.188057 0.063221
vt 0.228622 0.063220
vt 0.869489 0.842225
vt 0.153975 0.901766
vt 0.188057 0.043767
vt 0.228622 0.043766
vt 0.153972 0.825189
vt 0.828724 0.957645
vt 0.146225 0.794022
vt 0.828924 0.842155
vt 0.828911 0.849900
vt 0.161719 0.843033
vt 0.828938 0.834408
vt 0.169466 0.851730
vt 0.828951 0.826662
vt 0.177211 0.857758
vt 0.828964 0.818917
vt 0.184957 0.861879
vt 0.828978 0.811171
vt 0.192704 0.865048
vt 0.828991 0.803425
vt 0.200449 0.867645
vt 0.829005 0.795679
vt 0.208195 0.870433
vt 0.829018 0.787933
vt 0.215942 0.901764
vt 0.228621 0.011651
vt 0.188059 0.126264
vt 0.370567 0.718549
vt 0.473905 0.089334
vt 0.388606 0.718549
vt 0.473904 0.107373
vt 0.528923 0.089729
vt 0.528840 0.697461
vt 0.528800 0.107768
vt 0.510801 0.697462
vt 0.229889 0.294441
vt 0.683477 0.873986
vt 0.829841 0.312653
vt 0.829826 0.321667
vt 0.870455 0.284963
vt 0.674463 0.873986
vt 0.224957 0.901763
vt 0.188059 0.135392
vt 0.307482 0.850019
vt 0.229888 0.199486
vt 0.353551 0.826036
vt 0.229888 0.147549
vt 0.385137 0.802054
vt 0.229888 0.107890
vt 0.406733 0.778072
vt 0.229888 0.075617
vt 0.420960 0.754091
vt 0.229887 0.047733
vt 0.528536 0.146329
vt 0.472239 0.718546
vt 0.473913 0.011651
vt 0.188064 0.409166
vt 0.186805 0.697464
vt 0.473900 0.145934
vt 0.788509 0.755406
vt 0.472239 0.697463
vt 0.146240 0.697464
vt 0.570018 0.012325
vt 0.427141 0.011653
vt 0.789475 0.069594
vt 0.514478 0.011655
vt 0.270452 0.011651
vn 0.000000 1.000000 0.000000
vn 0.000000 1.000000 0.000000
vn 0.000000 1.000000 0.000000
vn 0.000000 1.000000 0.000000
vn 1.000000 0.000000 0.000000
vn 1.000000 0.000000 0.000000
vn 1.000000 0.000000 0.000000
vn 1.000000 0.000000 0.000000
vn 0.000000 0.000000 1.000000
vn 0.000000 0.000000 1.000000
vn 0.000000 0.000000 1.000000
vn 0.000000 0.000000 1.000000
vn -1.000000 0.000000 0.000000
vn -1.000000 0.000000 0.000000
vn -1.000000 0.000000 0.000000
vn -1.000000 0.000000 0.000000
vn 1.000000 0.000000 0.000000
vn 1.000000 0.000000 0.000000
vn 1.000000 0.000000 0.000000
vn 1.000000 0.000000 0.000000
vn -1.000000 0.000000 0.000000
vn -1.000000 0.000000 0.000000
vn -1.000000 0.000000 0.000000
vn -1.000000 0.000000 0.000000
vn 0.000000 0.000000 1.000000
vn 0.000000 0.000000 1.000000
vn 0.000000 -1.000000 0.000000
vn 0.000000 -1.000000 0.000000
vn 0.000000 -1.000000 0.000000
vn 0.000000 -1.000000 0.000000
vn 0.000000 1.000000 0.000000
vn 0.000000 1.000000 0.000000
vn 0.000000 1.000000 0.000000
vn 0.000000 1.000000 0.000000
vn 0.000000 0.000000 1.000000
vn 0.000000 0.000000 1.000000
vn 0.000000 -1.000000 0.000000
vn 0.000000 -1.000000 0.000000
vn 0.000000 -1.000000 0.000000
vn 0.000000 -1.000000 0.000000
vn 0.000000 0.000000 1.000000
vn 0.000000 0.000000 1.000000
vn 0.000000 1.000000 0.000000
vn 0.000000 1.000000 0.000000
vn 0.000000 1.000000 0.000000
vn 0.000000 1.000000 0.000000
vn -0.985433 -0.170063 0.000000
vn -0.985433 -0.170063 0.000000
vn -0.946999 -0.321237 0.000000
vn -0.946999 -0.321237 0.000000
vn 0.000000 0.000000 1.000000
vn 0.000000 0.000000 1.000000
vn 0.985431 -0.170074 0.000000
vn 0.985431 -0.170074 0.000000
vn 0.946999 -0.321237 0.000000
vn 0.946999 -0.321237 0.000000
vn 0.804603 -0.593813 0.000000
vn 0.804603 -0.593813 0.000000
vn 0.000000 0.000000 1.000000
vn 0.000000 0.000000 1.000000
vn -0.804603 -0.593813 0.000000
vn -0.804603 -0.593813 0.000000
vn 0.674141 -0.738603 0.000000
vn 0.674141 -0.738603 0.000000
vn 0.000000 0.000000 1.000000
vn 0.000000 0.000000 1.000000
vn -0.674144 -0.738600 0.000000
vn -0.674144 -0.738600 0.000000
vn 0.530056 -0.847963 0.000000
vn 0.530056 -0.847963 0.000000
vn 0.000000 0.000000 1.000000
vn 0.000000 0.000000 1.000000
vn -0.530056 -0.847963 0.000000
vn -0.530056 -0.847963 0.000000
vn 0.353155 -0.935565 0.000000
vn 0.353155 -0.935565 0.000000
vn 0.000000 0.000000 1.000000
vn 0.000000 0.000000 1.000000
vn -0.353156 -0.935564 0.000000
vn -0.353156 -0.935564 0.000000
vn 0.256287 -0.966601 0.000000
vn 0.256287 -0.966601 0.000000
vn 0.000000 0.000000 1.000000
vn 0.000000 0.000000 1.000000
vn -0.241935 -0.970292 0.000000
vn -0.241935 -0.970292 0.000000
vn -1.000000 0.000000 0.000000
vn -1.000000 0.000000 0.000000
vn -1.000000 0.000000 0.000000
vn -1.000000 0.000000 0.000000
vn 0.000000 0.000000 1.000000
vn 0.000000 0.000000 1.000000
vn 1.000000 0.000000 0.000000
vn 1.000000 0.000000 0.000000
vn 1.000000 0.000000 0.000000
vn 1.000000 0.000000 0.000000
vn 0.210742 -0.977542 0.000000
vn 0.210742 -0.977542 0.000000
vn -0.000000 0.000000 1.000000
vn -0.000000 0.000000 1.000000
vn 0.000012 1.000000 0.000000
vn 0.000012 1.000000 0.000000
vn 0.000000 -1.000000 0.000000
vn 0.000000 -1.000000 0.000000
vn 0.000000 1.000000 0.000000
vn 0.000000 1.000000 0.000000
vn 0.000000 0.000000 1.000000
vn 0.000000 0.000000 1.000000
vn 0.000000 -1.000000 0.000000
vn 0.000000 -1.000000 0.000000
vn 0.000000 1.000000 0.000000
vn 0.000000 1.000000 0.000000
vn 0.000000 0.000000 1.000000
vn 0.000000 0.000000 1.000000
vn 0.000000 -1.000000 0.000000
vn 0.000000 -1.000000 0.000000
vn 0.000000 0.000000 1.000000
vn 0.000000 0.000000 1.000000
vn 0.000000 1.000000 0.000000
vn 0.000000 1.000000 0.000000
vn 0.306531 -0.951861 0.000000
vn 0.306531 -0.951861 0.000000
vn -0.000000 0.000000 1.000000
vn -0.000000 0.000000 1.000000
vn 0.000013 1.000000 0.000000
vn 0.000013 1.000000 0.000000
vn -0.000013 1.000000 0.000000
vn -0.000013 1.000000 0.000000
vn 0.000000 0.000000 1.000000
vn 0.000000 0.000000 1.000000
vn 0.331887 -0.943319 0.000000
vn 0.331887 -0.943319 0.000000
vn -0.000013 1.000000 0.000000
vn -0.000013 1.000000 0.000000
vn 0.000000 0.000000 1.000000
vn 0.000000 0.000000 1.000000
vn 0.352541 -0.935796 0.000000
vn 0.352541 -0.935796 0.000000
vn 0.000000 1.000000 0.000000
vn 0.000000 1.000000 0.000000
vn 0.000000 0.000000 1.000000
vn 0.000000 0.000000 1.000000
vn 0.430037 -0.902811 0.000000
vn 0.430037 -0.902811 0.000000
vn 0.000000 1.000000 0.000000
vn 0.000000 1.000000 0.000000
vn -0.000000 0.000000 1.000000
vn -0.000000 0.000000 1.000000
vn 0.552676 -0.833396 0.000000
vn 0.552676 -0.833396 0.000000
vn 0.000000 1.000000 0.000000
vn 0.000000 1.000000 0.000000
vn -0.000000 0.000000 1.000000
vn -0.000000 0.000000 1.000000
vn 0.693298 -0.720651 0.000000
vn 0.693298 -0.720651 0.000000
vn 0.000000 1.000000 0.000000
vn 0.000000 1.000000 0.000000
vn 0.000000 0.000000 1.000000
vn 0.000000 0.000000 1.000000
vn 0.866264 -0.499587 0.000000
vn 0.866264 -0.499587 0.000000
vn 0.000000 1.000000 0.000000
vn 0.000000 1.000000 0.000000
vn -0.000000 0.000000 1.000000
vn -0.000000 0.000000 1.000000
vn 0.954535 -0.298100 0.000000
vn 0.954535 -0.298100 0.000000
vn 0.000000 1.000000 0.000000
vn 0.000000 1.000000 0.000000
vn -0.000000 0.000000 1.000000
vn -0.000000 0.000000 1.000000
vn 0.971152 -0.238462 0.000000
vn 0.971152 -0.238462 0.000000
s 1
g PILAR_CENTROARR ESCENARIO
usemtl lambert13SG
f 145/163/175 146/164/176 147/165/177 148/296/178
s off
f 157/167/179 158/168/180 159/169/181 160/289/182
s 2
f 103/312/183 104/172/184 112/173/185 109/318/186
s off
f 161/175/187 162/286/188 163/177/189 164/178/190
f 106/322/191 105/180/192 110/181/193 109/317/194
f 108/182/195 107/183/196 112/315/197 111/319/198
s 2
f 109/318/186 112/173/185 107/321/199 106/179/200
s 3
f 109/174/201 110/320/202 114/185/203 113/186/204
s 4
f 101/187/205 103/311/206 116/291/207 115/189/208
s 2
f 103/312/183 109/318/186 113/292/209 116/188/210
s 5
f 111/184/211 112/316/212 118/288/213 117/191/214
s 2
f 112/173/185 104/172/184 119/287/215 118/190/216
s 6
f 104/313/217 102/323/218 120/194/219 119/192/220
s 7
f 102/193/221 104/314/222 127/195/223 128/196/224
s 2
f 104/172/184 103/312/183 126/197/225 127/309/226
s 8
f 103/171/227 101/324/228 125/198/229 126/310/230
f 126/310/230 125/198/229 129/199/231 130/308/232
s 2
f 127/309/226 126/197/225 130/200/233 131/307/234
s 7
f 128/196/224 127/195/223 131/201/235 132/202/236
s 8
f 130/308/232 129/199/231 133/203/237 134/306/238
s 2
f 131/307/234 130/200/233 134/204/239 135/305/240
s 7
f 132/202/236 131/201/235 135/205/241 136/206/242
s 8
f 134/306/238 133/203/237 137/207/243 138/304/244
s 2
f 135/305/240 134/204/239 138/208/245 139/303/246
s 7
f 136/206/242 135/205/241 139/209/247 140/210/248
s 8
f 138/304/244 137/207/243 141/211/249 142/302/250
s 2
f 139/303/246 138/208/245 142/212/251 143/301/252
s 7
f 140/210/248 139/209/247 143/213/253 144/214/254
s 8
f 142/302/250 141/211/249 121/215/255 124/216/256
s 2
f 143/301/252 142/212/251 124/298/257 123/217/258
s 7
f 144/214/254 143/213/253 123/300/259 122/218/260
s off
f 165/219/261 166/264/262 167/267/263 168/222/264
s 2
f 123/217/258 124/298/257 148/166/265 147/299/266
s off
f 154/223/267 153/297/268 155/225/269 156/295/270
s 7
f 122/218/260 123/300/259 150/284/271 149/228/272
s 2
f 123/217/258 147/299/266 151/282/273 150/227/274
s 1
f 147/165/177 146/164/176 152/230/275 151/229/276
s 8
f 124/216/256 121/215/255 153/224/277 154/293/278
s 1
f 145/163/175 148/296/178 156/295/279 155/225/280
s 2
f 148/166/265 124/298/257 154/294/281 156/226/282
s 3
f 113/186/204 114/185/203 158/168/283 157/167/284
s 4
f 115/189/208 116/291/207 160/289/285 159/169/286
s 2
f 116/188/210 113/292/209 157/290/287 160/170/288
s 5
f 117/191/214 118/288/213 162/286/289 161/175/290
s 2
f 118/190/216 119/287/215 163/285/291 162/176/292
s 6
f 119/192/220 120/194/219 164/178/293 163/177/294
s 7
f 149/228/272 150/284/271 172/231/295 169/232/296
s 2
f 150/227/274 151/282/273 171/233/297 172/280/298
s 1
f 151/229/276 152/230/275 170/234/299 171/281/300
f 171/281/300 170/234/299 174/235/301 175/279/302
s 2
f 172/280/298 171/233/297 175/236/303 176/278/304
s 7
f 169/232/296 172/231/295 176/237/305 173/238/306
s 1
f 175/279/302 174/235/301 178/239/307 179/277/308
s 2
f 176/278/304 175/236/303 179/240/309 180/276/310
s 7
f 173/238/306 176/237/305 180/241/311 177/242/312
s 1
f 179/277/308 178/239/307 182/243/313 183/275/314
s 2
f 180/276/310 179/240/309 183/244/315 184/274/316
s 7
f 177/242/312 180/241/311 184/245/317 181/246/318
s 1
f 183/275/314 182/243/313 186/247/319 187/273/320
s 2
f 184/274/316 183/244/315 187/248/321 188/272/322
s 7
f 181/246/318 184/245/317 188/249/323 185/250/324
s 1
f 187/273/320 186/247/319 190/251/325 191/271/326
s 2
f 188/272/322 187/248/321 191/252/327 192/270/328
s 7
f 185/250/324 188/249/323 192/253/329 189/254/330
s 1
f 191/271/326 190/251/325 194/255/331 195/269/332
s 2
f 192/270/328 191/252/327 195/256/333 196/268/334
s 7
f 189/254/330 192/253/329 196/257/335 193/258/336
s 1
f 195/269/332 194/255/331 198/259/337 199/266/338
s 2
f 196/268/334 195/256/333 199/260/339 200/263/340
s 7
f 193/258/336 196/257/335 200/261/341 197/262/342
s 1
f 199/266/338 198/259/337 168/222/343 167/267/344
s 2
f 200/263/340 199/260/339 167/221/345 166/265/346
s 7
f 197/262/342 200/261/341 166/220/347 165/283/348
